<svg width="400" height="108" xmlns="http://www.w3.org/2000/svg">
 <style type="text/css">.st0{fill:#0872B9;}
	.st1{fill:#EA2227;}</style>

 <g>
  <title>background</title>
  <rect fill="none" id="canvas_background" height="110" width="402" y="-1" x="-1"/>
 </g>
 <g>
  <title>Layer 1</title>
  <path id="svg_2" d="m394.1,59.1c-2.7,-3.7 -6,-6.7 -9.8,-8.9c-3.7,-2.2 -7.5,-3.8 -11.3,-4.8c-3.6,-1 -6.5,-1.6 -8.5,-2c0.1,0 -16.1,-3.7 -16.1,-3.7c-4,-0.9 -7.1,-1.9 -9.3,-2.8c-2.4,-1 -3.3,-1.9 -3.6,-2.3c-0.5,-0.8 -0.8,-1.9 -0.8,-3.3c0,-1.6 0.4,-2.8 1.1,-3.8c0.8,-1.1 1.8,-1.9 3.1,-2.7c1.2,-0.7 2.7,-1.3 4.3,-1.6c1.7,-0.3 3.4,-0.5 5.1,-0.5c2.7,0 5.2,0.2 7.5,0.6c2.1,0.4 4,1.1 5.6,2c1.5,0.9 2.7,2 3.7,3.6c0.9,1.6 1.5,3.6 1.7,6.1l0.2,2.2l2.4,0l22.9,0l2.6,0l0,-2.4c0,-5.9 -1.3,-11 -3.9,-15.2c-2.5,-4.2 -6,-7.7 -10.3,-10.3c-4.3,-2.7 -9.2,-4.6 -14.6,-5.8c-5.3,-1.1 -11,-1.7 -16.8,-1.7c-5,0 -10.1,0.6 -15.1,1.8c-5.1,1.2 -9.7,3.2 -13.7,5.7c-0.4,0.3 -0.8,0.6 -1.3,0.8l0,44.5c2.8,1.7 5.9,3.2 9.3,4.4c3.9,1.3 7.9,2.4 12,3.4c3.8,1 7.8,1.9 11.6,2.7c3.6,0.8 6.9,1.7 9.8,2.7c2.6,0.9 4.8,2.1 6.4,3.5c1.3,1.1 2,2.6 2,4.6c0,1.8 -0.5,3.3 -1.6,4.5c-1.1,1.3 -2.6,2.3 -4.3,3c-1.9,0.8 -3.9,1.3 -6,1.6c-2.2,0.3 -4.4,0.5 -6.4,0.5c-2.8,0 -5.7,-0.3 -8.3,-0.9c-2.5,-0.6 -4.8,-1.5 -6.7,-2.7c-1.8,-1.2 -3.3,-2.7 -4.4,-4.6c-1.1,-1.9 -1.7,-4.3 -1.7,-7.1l0,-2.3l-2.6,0l-9.3,0l0,30.8c4.2,2.5 8.9,4.4 14.2,5.6c5.8,1.3 11.8,2 17.9,2c7.5,0 14.3,-0.8 20,-2.4c5.8,-1.6 10.8,-3.9 14.8,-6.8c4.1,-3 7.2,-6.5 9.2,-10.6c2.1,-4 3.1,-8.5 3.1,-13.1c0.1,-5.7 -1.3,-10.5 -4.1,-14.3" class="st0"/>
  <path id="svg_3" d="m310.9,1.8l-34.7,0l-2,0l-0.6,1.7l-22.4,62l-23.7,-62l-0.6,-1.7l-2,0l-34.6,0l-2.7,0l0,2.4l0,6.4c0,0 0.1,0.1 0.1,0.1c5.4,4.9 9.7,11 12.7,18.2c3,7.1 4.5,15.4 4.5,24.6c0,8 -1.2,15.7 -3.6,22.6c-2.5,7.2 -6.2,13.5 -11.2,18.8c-0.8,0.8 -1.6,1.6 -2.4,2.4l0,6.6l0,2.4l2.7,0l23.1,0l2.7,0l0,-2.3l0,-56.4l22.4,57.2l0.6,1.6l1.9,0l19,0l1.9,0l0.7,-1.6l22.4,-57.8l0,57l0,2.4l2.7,0l23.1,0l2.7,0l0,-2.4l0,-99.7l0,-2.4l-2.7,0l0,-0.1z" class="st0"/>
  <path id="svg_4" d="m124.8,83.1l0,-58l14.8,0c3.1,0 5.9,0.2 8.4,0.6c2.1,0.4 4.1,0.9 5.8,1.5c3.2,1.2 5.9,2.9 8,5c0.3,0.3 0.6,0.6 0.9,0.9c2.3,2.6 3.9,5.8 4.9,9.5c1,3.9 1.6,8.2 1.6,13c0,5.2 -0.7,9.6 -2.2,13.1c-1.4,3.5 -3.3,6.3 -5.7,8.4c-2.3,2.1 -4.9,3.6 -7.9,4.5c-3,0.9 -6.2,1.4 -9.5,1.4l-19.1,0l0,0.1zm74.4,-29.5c0,-7.6 -1.1,-14.4 -3.1,-20.2c-0.3,-0.8 -0.6,-1.5 -0.9,-2.3c-1.3,-3.2 -2.9,-6.1 -4.8,-8.8c0,0 0,-0.1 0,-0.1c-0.2,-0.3 -0.5,-0.6 -0.7,-0.9c-0.3,-0.4 -0.5,-0.7 -0.8,-1.1c-1.5,-1.9 -3.2,-3.7 -5,-5.3c-1.6,-1.4 -3.3,-2.7 -5,-3.9c-3.7,-2.4 -7.7,-4.4 -12.1,-5.9c-6.5,-2.1 -13.6,-3.2 -21.1,-3.2l-48.3,0l-2.7,0l-2,0c6.7,4.3 11.8,10.7 13.9,18.2l0,0c0.2,0.7 0.3,1.3 0.4,2l0,0c0.1,0.7 0.2,1.3 0.3,2c0,0.1 0,0.1 0,0.1c0,0.6 0.1,1.2 0.1,1.7c0,0.2 0,0.3 0.1,0.5c0,0.6 0,1.2 0,1.8l0,0.1l0,0.2c0,0.7 0,1.3 -0.1,1.9l0,0.2c-0.1,0.6 -0.1,1.3 -0.2,1.9l0,0c-1.3,9.1 -6.7,16.9 -14.3,21.8c8.1,5.2 13.6,13.6 14.5,23.1l0,0.3c0,0.3 0,0.6 0,0.8c0,0.4 0,0.8 0,1.2c0,0.6 0,1.2 0,1.8c0,0.2 0,0.3 0,0.5c-0.1,0.4 -0.1,0.9 -0.1,1.3c0,0.2 0,0.4 -0.1,0.5c0,0.5 -0.1,1 -0.2,1.5c-0.1,0.3 -0.1,0.6 -0.2,0.9c0,0.2 -0.1,0.4 -0.1,0.6c-0.1,0.4 -0.2,0.7 -0.3,1.1l0,0c-0.2,0.9 -0.5,1.7 -0.8,2.5l0,0.1c-2.4,6.5 -7.1,12 -13.1,15.8l2,0l2.7,0l48.3,0c8.9,0 16.8,-1.4 23.5,-4.1c5.2,-2.1 9.8,-4.8 13.6,-8.2c1.1,-0.9 2.1,-1.9 3.1,-3c1,-1 1.9,-2.1 2.8,-3.2c3.1,-4 5.5,-8.5 7.2,-13.5c2.5,-6.3 3.5,-13.3 3.5,-20.7" class="st0"/>
  <path id="svg_5" d="m25.8,41.6l0,-25.2l24.1,0l0,25.2l23.9,0l0,12.3c15.6,-0.3 28.2,-11.8 28.2,-26.1c0,-14.4 -12.9,-26 -28.8,-26l-71.4,0l0,39.8l24,0z" class="st1"/>
  <path id="svg_6" d="m73.8,54.5l0,12.4l-23.9,0l0,24.5l-24.1,0l0,-24.5l-24,0l0,39.6l71.4,0c15.9,0 28.8,-11.6 28.8,-26c0,-14.2 -12.6,-25.7 -28.2,-26" class="st1"/>
 </g>
</svg>